<svg id="Capa_1" enable-background="new 0 0 509 509" height="512" viewBox="0 0 509 509" width="512" xmlns="http://www.w3.org/2000/svg"><g><path d="m509 254.5c0 67.98-26.47 131.89-74.54 179.96s-111.98 74.54-179.96 74.54v-30c123.79 0 224.5-100.71 224.5-224.5s-100.71-224.5-224.5-224.5h-.09v-30h.09c67.98 0 131.89 26.47 179.96 74.54s74.54 111.98 74.54 179.96z" fill="#04303e"/><path d="m30 254.5c0 64.03 27.71 125.11 75.04 167.47v-45.21h30v90.8h-95.86v-30h38.57c-19.76-19.11-36.47-41.38-49.13-65.7-18.72-35.97-28.62-76.55-28.62-117.36 0-67.98 26.47-131.89 74.54-179.96 48.05-48.05 111.92-74.52 179.87-74.54v30c-123.75.05-224.41 100.74-224.41 224.5z" fill="#07485e"/><path d="m435.4 202.09-63.39 77.84-33.22-25.84v139.22h-84.38v-239.31h.09c13.45 0 24.41-10.51 24.97-23.94l.6-14.37h53.82z" fill="#e40058"/><path d="m254.41 154v239.31h-83.2v-139.22l-33.1 25.74-64.68-77.7 102.73-86.44h52.77l.6 14.37c.56 13.4 11.47 23.89 24.88 23.94z" fill="#ff4a4a"/></g></svg>